<?xml version="1.0" encoding="utf-8"?>
<!-- Generator: Adobe Illustrator 22.0.0, SVG Export Plug-In . SVG Version: 6.00 Build 0)  -->
<!DOCTYPE svg PUBLIC "-//W3C//DTD SVG 1.1//EN" "http://www.w3.org/Graphics/SVG/1.1/DTD/svg11.dtd" [
	<!ENTITY ns_extend "http://ns.adobe.com/Extensibility/1.0/">
	<!ENTITY ns_ai "http://ns.adobe.com/AdobeIllustrator/10.0/">
	<!ENTITY ns_graphs "http://ns.adobe.com/Graphs/1.0/">
	<!ENTITY ns_vars "http://ns.adobe.com/Variables/1.0/">
	<!ENTITY ns_imrep "http://ns.adobe.com/ImageReplacement/1.0/">
	<!ENTITY ns_sfw "http://ns.adobe.com/SaveForWeb/1.0/">
	<!ENTITY ns_custom "http://ns.adobe.com/GenericCustomNamespace/1.0/">
	<!ENTITY ns_adobe_xpath "http://ns.adobe.com/XPath/1.0/">
]>
<svg fill="white" version="1.1" id="Layer_1" xmlns:x="&ns_extend;" xmlns:i="&ns_ai;" xmlns:graph="&ns_graphs;"
	 xmlns="http://www.w3.org/2000/svg" xmlns:xlink="http://www.w3.org/1999/xlink" x="0px" y="0px" viewBox="0 0 120 120"
	 style="enable-background:new 0 0 120 120;" xml:space="preserve">
<switch>
	<g i:extraneous="self">
		<g>
			<g>
				<path d="M60,120C26.9,120,0,93.1,0,60S26.9,0,60,0s60,26.9,60,60S93.1,120,60,120z M60,5C29.7,5,5,29.7,5,60s24.7,55,55,55
					s55-24.7,55-55S90.3,5,60,5z"/>
			</g>
			<g>
				<path d="M60,120c-19.3,0-34.4-26.4-34.4-60S40.7,0,60,0s34.4,26.4,34.4,60S79.3,120,60,120z M60,5C43.8,5,30.5,29.7,30.5,60
					s13.2,55,29.5,55s29.5-24.7,29.5-55S76.2,5,60,5z"/>
			</g>
			<g>
				<rect x="12.2" y="25.6" width="95.6" height="5"/>
			</g>
			<g>
				<rect x="12.2" y="89.5" width="95.6" height="5"/>
			</g>
			<g>
				<rect x="2.5" y="57.5" width="115" height="5"/>
			</g>
			<g>
				<rect x="57.5" y="2.5" width="5" height="115"/>
			</g>
		</g>
	</g>
</switch>
</svg>
